<svg width="200" height="200" viewBox="0 0 200 200" fill="none" xmlns="http://www.w3.org/2000/svg">
<path d="M136 163H66.5001C53.5001 163 43 153 42.5 140L40 93.5C40 92.5 40.5001 92.0001 41.5001 92.0001H160C161 92.0001 161.5 92.5 161.5 93.5L159 140C159 153 148.5 163 136 163Z" fill="url(#paint0_linear_225_981)" stroke="#2C001B" stroke-width="1.5" stroke-miterlimit="10" stroke-linecap="round" stroke-linejoin="round"/>
<path d="M40 125H75" stroke="#2C001B" stroke-width="1.5" stroke-miterlimit="10" stroke-linecap="round" stroke-linejoin="round"/>
<path d="M125 125H160" stroke="black" stroke-width="1.5" stroke-miterlimit="10" stroke-linecap="round" stroke-linejoin="round"/>
<path d="M101 142C114.531 142 125.5 135.284 125.5 127C125.5 118.716 114.531 112 101 112C87.4691 112 76.5001 118.716 76.5001 127C76.5001 135.284 87.4691 142 101 142Z" fill="white" stroke="#2C001B" stroke-width="1.5" stroke-miterlimit="10" stroke-linecap="round" stroke-linejoin="round"/>
<path d="M152 68.5H51V92.5H152V68.5Z" stroke="#2C001B" stroke-width="1.5" stroke-miterlimit="10" stroke-linecap="round" stroke-linejoin="round"/>
<path d="M46 80.5001H156.5" stroke="#2C001B" stroke-width="1.5" stroke-miterlimit="10" stroke-linecap="round" stroke-linejoin="round"/>
<path d="M61.9999 68.5C61.9999 68.5 59 43.5 86 35C86 35 97.5 66 151.5 68.5" stroke="#2C001B" stroke-width="1.5" stroke-miterlimit="10" stroke-linecap="round" stroke-linejoin="round"/>
<path d="M67 49C67 49 70.5001 55.5 76.5001 57" stroke="#2C001B" stroke-width="1.5" stroke-miterlimit="10" stroke-linecap="round" stroke-linejoin="round"/>
<defs>
<linearGradient id="paint0_linear_225_981" x1="100.75" y1="92.0001" x2="100.75" y2="163" gradientUnits="userSpaceOnUse">
<stop stop-color="#FFD976"/>
<stop offset="0.46875" stop-color="#FFCA40"/>
<stop offset="1" stop-color="#F8B300"/>
</linearGradient>
</defs>
</svg>
